<?xml version="1.0" encoding="UTF-8"?>
<!DOCTYPE svg PUBLIC "-//W3C//DTD SVG 1.1//EN" "http://www.w3.org/Graphics/SVG/1.1/DTD/svg11.dtd">
<svg xmlns="http://www.w3.org/2000/svg" xmlns:xlink="http://www.w3.org/1999/xlink" version="1.1" viewBox="-255 309.5 100 145">
<path d="M-234.9,376.6c-1.1-4.7,0.5-9.9,4.5-13.1c4-3.2,9.4-3.7,13.8-1.6L-234.9,376.6z M-233.9,359.1c-8,6.5-9.3,18.2-2.8,26.2 l29-23.4C-214.2,353.9-225.9,352.6-233.9,359.1z"/>
<path d="M-221,361.6v2.6l2.5-2C-219.3,361.9-220.2,361.7-221,361.6z"/>
<polygon points="-221,395.8 -213,395.8 -213,367.3 -221,373.8"/>
<path d="M-205.2,345l13.7,8.8l-13.7,24.2V345z M-209.9,336.3v22.1c1,0.9,2,1.8,2.9,2.9l0.6,0.7l-3.5,2.8V396l24.8-43.8 L-209.9,336.3z"/>
<path d="M-193.6,393l5.7,1.5c0.8,0.2,1.6-0.3,1.8-1l10-37.2l-8.6-2.3l-10,37.2C-194.9,391.9-194.4,392.8-193.6,393z M-175.5,354.7 l-1.3-10.9c0.1-0.3-0.1-0.5-0.3-0.6s-0.5,0.1-0.6,0.3l-6.6,8.7c0,0,0,0,0,0L-175.5,354.7C-175.5,354.7-175.5,354.7-175.5,354.7z"/>
<path d="M-167.9,388.9c-2.4,0-4.3,1.9-4.3,4.3v16.7c2.3,1,3.7,3.2,3.7,5.5c0,1.5-0.6,3-1.7,4.1l-8.9,9.7c-0.4,0.5-1,1.3-1.2,2.2 c-0.2,0.5-0.2,1-0.2,1.6h-2.8c0-0.9,0.1-1.7,0.3-2.5c0.5-1.5,1.4-2.8,2-3.5l8.8-9.4c0.5-0.6,0.8-1.4,0.8-2.2 c0-1.9-1.5-3.4-3.4-3.4c-0.9,0-1.7,0.3-2.4,1l-18.1,18.2c-3.1,3.3-2.9,6.6-2.9,9.1l0,6.6h15.6v-2.8c0-1.8,0.4-3,1.8-4.3l14.3-15.2 c2-2.4,3.2-5.5,3.2-8.6v-22.9C-163.6,390.8-165.5,388.9-167.9,388.9z"/>
<path d="M-232.7,413.1c-0.6-0.6-1.5-1-2.4-1c-1.9,0-3.4,1.5-3.4,3.4c0,0.8,0.3,1.6,0.8,2.2l8.8,9.4c0.6,0.7,1.5,1.9,2,3.5 c0.3,0.8,0.3,1.6,0.3,2.5h-2.8c0-0.6-0.1-1.1-0.2-1.6c-0.3-0.9-0.8-1.7-1.2-2.2l-8.9-9.8c-1.1-1.1-1.7-2.6-1.7-4.1 c0-2.3,1.4-4.4,3.7-5.5v-16.7c0-2.4-1.9-4.3-4.3-4.3c-2.4,0-4.3,1.9-4.3,4.3v22.9c0,3.2,1.1,6.2,3.2,8.6l14.3,15.2 c1.4,1.3,1.8,2.5,1.8,4.3v2.8h15.6l0-6.6c0-2.5,0.2-5.9-2.9-9.1L-232.7,413.1z"/>
<path d="M-177.4,370.9h-55.3v34.6h55.3V370.9z M-182.9,399.9h-44.2v-23.5h44.2V399.9z"/>
<rect x="-227.1" y="376.4" fill="#FFFFFF" stroke="#000000" stroke-miterlimit="10" width="44.2" height="23.5"/>
<g transform="matrix(1,0,0,-1,53.152542,1217.0847)">
    <path d="M-266.5,880.7l0.3-20.1c0-0.1-2.2,1.2-3.5,1.5c-1.2,0.3-4.4,0.7-4.3,0.8 l-0.1,17.9c1.5-0.7,2.2-1,3.9-1C-268.7,879.8-268,880.1-266.5,880.7z M-263.4,895.4c0.4-0.4,0.7-1,1.1-1.8c0.8-1.7,1-3.4,0.7-5.3 c-0.3-1.9-1.1-3.4-2.4-4.7c-1.7-1.7-3.8-2.6-6.2-2.6s-4.5,0.9-6.2,2.6s-2.6,3.8-2.6,6.2s0.9,4.5,2.6,6.2c0.5,0.5,1.2,1,1.9,1.5 s1.4,0.7,2.1,0.8c0.2,0,0.5,0,0.6-0.2c0.2-0.2,0.2-0.4,0.2-0.6l-1.7-6.4l3.1-3.1l4.1,1.2c0,0.1,0.2,0.7,0.4,1.8 c0.3,1.1,0.5,2.1,0.8,3c0.2,0.9,0.4,1.4,0.5,1.5c0.1,0.1,0.3,0.2,0.5,0.2C-263.7,895.6-263.6,895.5-263.4,895.4z"/>
</g>
</svg>