<?xml version="1.0" encoding="UTF-8" standalone="no"?>
<svg
   xmlns:dc="http://purl.org/dc/elements/1.1/"
   xmlns:cc="http://creativecommons.org/ns#"
   xmlns:rdf="http://www.w3.org/1999/02/22-rdf-syntax-ns#"
   xmlns:svg="http://www.w3.org/2000/svg"
   xmlns="http://www.w3.org/2000/svg"
   xmlns:sodipodi="http://sodipodi.sourceforge.net/DTD/sodipodi-0.dtd"
   xmlns:inkscape="http://www.inkscape.org/namespaces/inkscape"
   version="1.1"
   x="0px"
   y="0px"
   viewBox="0 0 600 365"
   style="enable-background:new 0 0 600 292;"
   xml:space="preserve"
   id="svg118"
   sodipodi:docname="gpu.svg"
   inkscape:version="0.92.5 (2060ec1f9f, 2020-04-08)"><metadata
     id="metadata124"><rdf:RDF><cc:Work
         rdf:about=""><dc:format>image/svg+xml</dc:format><dc:type
           rdf:resource="http://purl.org/dc/dcmitype/StillImage" /></cc:Work></rdf:RDF></metadata><defs
     id="defs122" /><sodipodi:namedview
     pagecolor="#ffffff"
     bordercolor="#666666"
     borderopacity="1"
     objecttolerance="10"
     gridtolerance="10"
     guidetolerance="10"
     inkscape:pageopacity="0"
     inkscape:pageshadow="2"
     inkscape:window-width="780"
     inkscape:window-height="480"
     id="namedview120"
     showgrid="false"
     inkscape:zoom="0.57833333"
     inkscape:cx="31.289472"
     inkscape:cy="182.5"
     inkscape:window-x="72"
     inkscape:window-y="0"
     inkscape:window-maximized="0"
     inkscape:current-layer="svg118" /><g
     id="g112"><g
       id="g6"><g
         id="g4"><path
           d="M398.6,216.3c-40,0-72.5-32.5-72.5-72.5c0-40,32.5-72.5,72.5-72.5s72.5,32.5,72.5,72.5     C471.2,183.8,438.6,216.3,398.6,216.3z M380.5,202c3.2,1,6.5,1.7,9.9,2.2c-5.4-6.5-8.8-14.5-9.6-23c-1.8-0.9-3.5-1.9-5.2-3     c-0.4,2.1-0.7,4.2-0.7,6.3C375,190.6,376.8,196.8,380.5,202z M393.2,184.8c2.1,8.1,7.5,15.1,14.9,19.2c3-0.5,5.9-1.2,8.7-2     c-7.6-3.6-14.1-9.4-18.5-16.8C396.6,185.1,394.9,185,393.2,184.8z M357.5,188.7c2.2,2,4.6,3.9,7.1,5.6c-0.8-3.2-1.2-6.5-1.2-9.8     c0-5.1,0.9-10.2,2.8-15c-1.1-1.4-2.1-2.8-3-4.3c-4,5.3-6.2,11.8-6.2,18.4C357,185.2,357.2,186.9,357.5,188.7z M411.1,183.2     c5.3,6.4,13.2,10.5,21.6,11c2.8-1.9,5.4-4,7.9-6.4c-8.4,0.2-16.8-2.2-23.9-6.9C414.9,181.9,413,182.6,411.1,183.2z M427.3,173.6     c7.6,3.4,16.5,3.6,24.3,0.3c1.5-2.6,2.8-5.3,3.9-8.1c-7.5,3.7-16.2,5.2-24.6,4C429.7,171.1,428.5,172.4,427.3,173.6z      M341.9,165.9c1.2,3.2,2.7,6.2,4.4,9.1c1.7-8.2,5.9-15.9,12-21.8c-0.5-1.9-0.8-3.9-0.9-5.9C350,151,344.2,157.7,341.9,165.9z      M388.4,171.8c3.3,1.2,6.7,1.8,10.2,1.8c0.8,0,1.7,0,2.7-0.1c0,0,0,0,0,0c4.6-0.4,8.9-1.8,12.8-4.2c0,0,0,0,0,0     c3.7-2.3,6.9-5.4,9.3-9c0,0,0,0,0,0c2.5-3.8,4.1-8.1,4.7-12.7c0.2-1.3,0.2-2.5,0.2-3.7c0-3.1-0.5-6.2-1.4-9.2c0,0,0,0,0,0     c-1.4-4.3-3.8-8.3-7-11.6c0,0,0,0,0,0c-3-3.1-6.8-5.6-10.8-7.1c0,0,0,0,0,0c-4.2-1.6-8.7-2.2-13.4-1.8c-4.4,0.4-8.5,1.8-12.3,4.1     c0,0,0,0,0,0c-3.9,2.3-7.2,5.6-9.7,9.4c0,0,0,0,0,0c-2.4,3.7-3.9,7.8-4.5,12.1c0,0,0,0,0,0c-0.2,1.4-0.3,2.7-0.3,4     c0,3.2,0.5,6.4,1.5,9.4c0,0,0,0,0,0c1.4,4.1,3.7,7.9,6.7,11.1c0,0,0,0,0,0C380.3,167.6,384.2,170.2,388.4,171.8     C388.4,171.8,388.4,171.8,388.4,171.8z M439,152.9c-0.4,1.9-1,3.9-1.7,5.7c8.4-0.1,16.5-3.7,22.1-10.1c0.1-1.6,0.2-3.2,0.2-4.7     c0-1.8-0.1-3.6-0.2-5.4C454.2,145.1,447.1,150.2,439,152.9z M337.9,139.6c-0.1,1.4-0.1,2.8-0.1,4.2c0,1.6,0.1,3.2,0.2,4.8     c5.2-6.6,12.3-11.7,20.5-14.3c0.4-1.7,0.9-3.4,1.5-5C351.5,129.6,343.5,133.3,337.9,139.6z M439,134.9c0.4,1.7,0.6,3.4,0.8,5.1     c7.4-3.8,13.1-10.6,15.4-18.8c-1.1-2.8-2.4-5.5-3.9-8.1C449.5,121.4,445.3,129,439,134.9z M430.9,117.9c1.2,1.6,2.4,3.2,3.4,4.9     c4.1-5.3,6.3-11.9,6.3-18.6c0-1.6-0.1-3.3-0.4-4.9c-2.5-2.3-5.1-4.4-8-6.3c0.8,3.3,1.3,6.8,1.3,10.2     C433.5,108.2,432.7,113.2,430.9,117.9z M346,113.2c-1.7,2.9-3.2,6-4.4,9.2c7.5-3.8,16.1-5.3,24.6-4.2c1.2-1.6,2.6-3,4-4.4     C362.7,110.2,353.8,109.9,346,113.2z M416.8,106.7c1.6,0.8,3.1,1.6,4.5,2.6c0.4-2,0.6-4,0.6-6c0-6.3-1.9-12.5-5.7-17.8     c-2.8-0.9-5.8-1.5-8.8-2C412.8,90,416.1,98.1,416.8,106.7z M357.5,99.3c8.3,0,16.5,2.4,23.5,7.1c1.6-0.7,3.2-1.4,4.8-1.9     c-5.4-6.4-13.3-10.4-21.7-10.8c-2.5,1.7-4.8,3.6-7,5.6C357.2,99.3,357.3,99.3,357.5,99.3z M398.6,102.4c2,0,3.9,0.1,5.8,0.4     c-2-8.1-7.3-15.2-14.7-19.3c-3.4,0.5-6.7,1.3-9.9,2.3c7.7,3.5,14.2,9.3,18.6,16.6C398.6,102.4,398.6,102.4,398.6,102.4z"
           id="path2" /></g></g><g
       id="g10"><path
         d="M285.5,191.6H136.2c-3.2,0-5.8-2.6-5.8-5.8s2.6-5.8,5.8-5.8h149.3c3.2,0,5.8,2.6,5.8,5.8S288.7,191.6,285.5,191.6z"
         id="path8" /></g><g
       id="g14"><path
         d="M285.5,107.6H136.2c-3.2,0-5.8-2.6-5.8-5.8s2.6-5.8,5.8-5.8h149.3c3.2,0,5.8,2.6,5.8,5.8S288.7,107.6,285.5,107.6z"
         id="path12" /></g><g
       id="g18"><path
         d="M98.1,212.8c-3.2,0-5.8-2.6-5.8-5.8V82.4c0-3.2,2.6-5.8,5.8-5.8s5.8,2.6,5.8,5.8V207C103.9,210.2,101.3,212.8,98.1,212.8z    "
         id="path16" /></g><g
       id="g52"><g
         id="g22"><path
           d="M300.5,215.2c-0.2,0-0.4,0-0.6,0c-1.7-0.2-3.3-1.1-4.3-2.5c-13.7-20.4-20.9-44.2-20.9-68.9c0-24.6,7.2-48.5,20.9-68.9     c1-1.4,2.5-2.4,4.3-2.5c1.7-0.2,3.4,0.4,4.7,1.7l21.7,21.7c1.9,1.9,2.2,4.7,0.9,7c-7.2,12.4-11,26.6-11,41c0,14.4,3.8,28.6,11,41     c1.3,2.3,0.9,5.1-0.9,7l-21.7,21.7C303.5,214.6,302.1,215.2,300.5,215.2z M301.6,87.4c-9.9,17.1-15.2,36.4-15.2,56.4     c0,20,5.2,39.3,15.2,56.4l13.5-13.5c-6.8-13.2-10.4-27.9-10.4-42.9c0-14.9,3.6-29.6,10.4-42.9L301.6,87.4z"
           id="path20" /></g><g
         id="g26"><path
           d="M496.8,215.2c-1.5,0-3-0.6-4.1-1.7l-21.7-21.7c-1.9-1.9-2.2-4.7-0.9-7c7.2-12.4,11-26.6,11-41c0-14.4-3.8-28.6-11-41     c-1.3-2.3-0.9-5.1,0.9-7l21.7-21.7c1.2-1.2,2.9-1.8,4.7-1.7c1.7,0.2,3.3,1.1,4.3,2.5c13.7,20.4,20.9,44.2,20.9,68.9     c0,24.6-7.2,48.5-20.9,68.9c-1,1.4-2.5,2.4-4.3,2.5C497.1,215.2,496.9,215.2,496.8,215.2z M482.2,186.7l13.5,13.5     c10-17.1,15.2-36.4,15.2-56.4c0-20-5.2-39.3-15.2-56.4l-13.5,13.5c6.8,13.2,10.4,27.9,10.4,42.9     C492.5,158.7,489,173.4,482.2,186.7z"
           id="path24" /></g><g
         id="g30"><path
           d="M442.5,73.2c-1,0-2-0.3-2.9-0.8c-12.4-7.2-26.6-11-41-11c-14.4,0-28.6,3.8-41,11c-2.3,1.3-5.1,0.9-7-0.9l-21.7-21.7     c-1.2-1.2-1.8-2.9-1.7-4.7s1.1-3.3,2.5-4.3c4-2.7,8.3-5.2,12.6-7.4c2.9-1.5,6.3-0.3,7.8,2.5c1.5,2.9,0.3,6.3-2.5,7.8     c-1.8,0.9-3.6,1.9-5.4,2.9l13.5,13.5c13.2-6.8,27.9-10.4,42.9-10.4c14.9,0,29.6,3.6,42.9,10.4L455,46.7c-1.8-1-3.6-2-5.4-2.9     c-2.9-1.5-4-5-2.5-7.8c1.5-2.9,5-4,7.8-2.5c4.3,2.2,8.6,4.7,12.6,7.4c1.4,1,2.4,2.5,2.5,4.3s-0.4,3.4-1.7,4.7l-21.7,21.7     C445.5,72.6,444,73.2,442.5,73.2z"
           id="path28" /></g><g
         id="g34"><path
           d="M448.7,256.5c-2.2,0-4.3-1.2-5.3-3.3c-1.4-2.9-0.1-6.4,2.8-7.7c3-1.4,5.9-2.9,8.8-4.6l-13.5-13.5     c-13.2,6.8-27.9,10.4-42.9,10.4s-29.6-3.6-42.9-10.4l-13.5,13.5c2.6,1.5,5.3,2.9,8,4.2c2.9,1.4,4.1,4.8,2.7,7.7     c-1.4,2.9-4.8,4.1-7.7,2.7c-5.3-2.6-10.6-5.5-15.5-8.8c-1.4-1-2.4-2.5-2.5-4.3c-0.2-1.7,0.4-3.4,1.7-4.7l21.7-21.7     c1.9-1.9,4.7-2.2,7-0.9c12.4,7.2,26.6,11,41,11s28.6-3.8,41-11c2.3-1.3,5.1-0.9,7,0.9l21.7,21.7c1.2,1.2,1.8,2.9,1.7,4.7     c-0.2,1.7-1.1,3.3-2.5,4.3c-5.2,3.5-10.7,6.6-16.3,9.2C450.4,256.3,449.6,256.5,448.7,256.5z"
           id="path32" /></g><g
         id="g38"><path
           d="M333,247.7c-1.1,0-2.2-0.3-3.2-1c-13.5-9.1-25-20.5-34.1-34.1c-1.5-2.3-1.2-5.4,0.7-7.3l21.7-21.7     c1.3-1.3,3.1-1.9,4.9-1.6c1.8,0.2,3.4,1.3,4.3,2.9c7.3,12.6,17.8,23.1,30.3,30.3c1.6,0.9,2.6,2.5,2.9,4.3     c0.2,1.8-0.4,3.6-1.6,4.9L337.1,246C336,247.1,334.5,247.7,333,247.7z M308.1,210.1c6.8,9.3,15,17.5,24.3,24.3l13.2-13.2     c-9.5-6.5-17.7-14.8-24.3-24.3L308.1,210.1z"
           id="path36" /></g><g
         id="g42"><path
           d="M322.3,105.7c-1.5,0-3-0.6-4.1-1.7l-21.7-21.7c-2-2-2.3-5-0.7-7.3c9.1-13.5,20.5-25,34.1-34.1c2.3-1.5,5.4-1.2,7.3,0.7     l21.7,21.7c1.3,1.3,1.9,3.1,1.6,4.9c-0.2,1.8-1.3,3.4-2.9,4.3c-12.6,7.3-23.1,17.8-30.3,30.3c-0.9,1.6-2.5,2.6-4.3,2.9     C322.8,105.7,322.5,105.7,322.3,105.7z M308.1,77.5l13.2,13.2c6.5-9.5,14.8-17.7,24.3-24.3l-13.2-13.2     C323,60,314.9,68.2,308.1,77.5z"
           id="path40" /></g><g
         id="g46"><path
           d="M475,105.7c-0.3,0-0.5,0-0.8,0c-1.8-0.2-3.4-1.3-4.3-2.9c-7.3-12.6-17.8-23.1-30.3-30.3c-1.6-0.9-2.6-2.5-2.9-4.3     c-0.2-1.8,0.4-3.6,1.6-4.9l21.7-21.7c2-2,5-2.3,7.3-0.7c13.5,9.1,25,20.5,34.1,34.1c1.5,2.3,1.2,5.4-0.7,7.3L479.1,104     C478,105.1,476.5,105.7,475,105.7z M451.8,66.4c9.5,6.5,17.7,14.8,24.3,24.3l13.2-13.2c-6.8-9.3-15-17.5-24.3-24.3L451.8,66.4z"
           id="path44" /></g><g
         id="g50"><path
           d="M464.3,247.7c-1.5,0-3-0.6-4.1-1.7l-21.7-21.7c-1.3-1.3-1.9-3.1-1.6-4.9s1.3-3.4,2.9-4.3c12.6-7.3,23.1-17.8,30.3-30.3     c0.9-1.6,2.5-2.6,4.3-2.9c1.8-0.2,3.6,0.4,4.9,1.6l21.7,21.7c2,2,2.3,5,0.7,7.3c-9.1,13.5-20.5,25-34.1,34.1     C466.5,247.4,465.4,247.7,464.3,247.7z M451.8,221.2l13.2,13.2c9.3-6.8,17.5-15,24.3-24.3L476,196.9     C469.5,206.4,461.3,214.7,451.8,221.2z"
           id="path48" /></g></g><g
       id="g58"><g
         id="g56"><path
           d="M152.3,256.5c-2.2,0-4.4-1.3-5.3-3.5c-15-34.6-22.6-71.3-22.6-109.2c0-37.3,7.4-73.4,21.9-107.4c1.3-2.9,4.7-4.3,7.6-3.1     c2.9,1.3,4.3,4.7,3.1,7.6c-13.9,32.6-20.9,67.2-20.9,102.9c0,36.3,7.3,71.5,21.7,104.6c1.3,2.9-0.1,6.4-3,7.6     C153.9,256.4,153.1,256.5,152.3,256.5z"
           id="path54" /></g></g><g
       id="g62"><path
         d="M68.3,275.4c-3.2,0-5.8-2.6-5.8-5.8v-243H40.1c-3.2,0-5.8-2.6-5.8-5.8s2.6-5.8,5.8-5.8h28.2c3.2,0,5.8,2.6,5.8,5.8v248.8    C74.1,272.8,71.5,275.4,68.3,275.4z"
         id="path60" /></g><g
       id="g66"><path
         d="M68.3,107.9H47.7c-3.2,0-5.8-2.6-5.8-5.8V72.6c0-3.2,2.6-5.8,5.8-5.8h20.6c3.2,0,5.8,2.6,5.8,5.8v29.5    C74.1,105.3,71.5,107.9,68.3,107.9z M53.5,96.3h9V78.4h-9V96.3z"
         id="path64" /></g><g
       id="g70"><path
         d="M67.8,201.9H47.2c-3.2,0-5.8-2.6-5.8-5.8v-70.5c0-3.2,2.6-5.8,5.8-5.8h20.6c3.2,0,5.8,2.6,5.8,5.8v70.5    C73.6,199.3,71,201.9,67.8,201.9z M53,190.3h9v-58.9h-9V190.3z"
         id="path68" /></g><g
       id="g74"><path
         d="M141.3,276.9h-33.2c-3.2,0-5.8-2.6-5.8-5.8v-18.6c0-3.2,2.6-5.8,5.8-5.8s5.8,2.6,5.8,5.8v12.8h21.6v-12.8    c0-3.2,2.6-5.8,5.8-5.8s5.8,2.6,5.8,5.8v18.6C147.1,274.3,144.5,276.9,141.3,276.9z"
         id="path72" /></g><g
       id="g78"><path
         d="M304.4,276.9H165.1c-3.2,0-5.8-2.6-5.8-5.8v-18.6c0-3.2,2.6-5.8,5.8-5.8s5.8,2.6,5.8,5.8v12.8h127.7v-12.8    c0-3.2,2.6-5.8,5.8-5.8s5.8,2.6,5.8,5.8v18.6C310.2,274.3,307.7,276.9,304.4,276.9z"
         id="path76" /></g><g
       id="g82"><path
         d="M546.5,256.5H72.7c-3.2,0-5.8-2.6-5.8-5.8s2.6-5.8,5.8-5.8h471.4l10-10V54.4l-10-10H72.7c-3.2,0-5.8-2.6-5.8-5.8    s2.6-5.8,5.8-5.8h473.8c1.5,0,3,0.6,4.1,1.7L564,47.9c1.1,1.1,1.7,2.6,1.7,4.1v185.4c0,1.5-0.6,3-1.7,4.1l-13.4,13.4    C549.5,255.9,548.1,256.5,546.5,256.5z"
         id="path80" /></g><g
       id="g86"><path
         d="M316,236H70.4c-3.2,0-5.8-2.6-5.8-5.8s2.6-5.8,5.8-5.8H316c3.2,0,5.8,2.6,5.8,5.8S319.2,236,316,236z"
         id="path84" /></g><g
       id="g90"><path
         d="M512,236h-32.9c-3.2,0-5.8-2.6-5.8-5.8s2.6-5.8,5.8-5.8h30.5l23.8-23.8V88.8L509.6,65h-28.7c-3.2,0-5.8-2.6-5.8-5.8    s2.6-5.8,5.8-5.8H512c1.5,0,3,0.6,4.1,1.7l27.2,27.2c1.1,1.1,1.7,2.6,1.7,4.1V203c0,1.5-0.6,3-1.7,4.1l-27.2,27.2    C515,235.4,513.6,236,512,236z"
         id="path88" /></g><g
       id="g94"><path
         d="M313.7,65H70.4c-3.2,0-5.8-2.6-5.8-5.8s2.6-5.8,5.8-5.8h243.3c3.2,0,5.8,2.6,5.8,5.8S316.9,65,313.7,65z"
         id="path92" /></g><g
       id="g98"><path
         d="M512,65c-2,0-3.9-1-5-2.8c-1.6-2.8-0.7-6.3,2-8l34.5-20.6c2.8-1.6,6.3-0.7,8,2c1.6,2.8,0.7,6.3-2,8L515,64.2    C514.1,64.7,513,65,512,65z"
         id="path96" /></g><g
       id="g102"><path
         d="M539.2,92.2c-1,0-2-0.3-3-0.8c-2.7-1.6-3.6-5.2-2-8L554.9,49c1.6-2.7,5.2-3.6,8-2c2.7,1.6,3.6,5.2,2,8l-20.6,34.4    C543.1,91.2,541.2,92.2,539.2,92.2z"
         id="path100" /></g><g
       id="g106"><path
         d="M559.9,243.2c-2,0-3.9-1-5-2.8l-20.6-34.4c-1.6-2.7-0.8-6.3,2-8c2.7-1.7,6.3-0.8,8,2l20.6,34.4c1.6,2.7,0.8,6.3-2,8    C561.9,242.9,560.9,243.2,559.9,243.2z"
         id="path104" /></g><g
       id="g110"><path
         d="M546.5,256.5c-1,0-2-0.3-3-0.8l-34.5-20.6c-2.8-1.6-3.7-5.2-2-8c1.6-2.8,5.2-3.7,8-2l34.5,20.6c2.8,1.6,3.7,5.2,2,8    C550.4,255.5,548.5,256.5,546.5,256.5z"
         id="path108" /></g></g></svg>