<?xml version="1.0" encoding="UTF-8" standalone="no"?>
<svg
   version="1.1"
   x="0px"
   y="0px"
   viewBox="0 0 218.66313 227.93121"
   xml:space="preserve"
   id="svg154"
   sodipodi:docname="neuromorphic.svg"
   width="218.66313"
   height="227.93121"
   inkscape:version="1.2.2 (732a01da63, 2022-12-09, custom)"
   xmlns:inkscape="http://www.inkscape.org/namespaces/inkscape"
   xmlns:sodipodi="http://sodipodi.sourceforge.net/DTD/sodipodi-0.dtd"
   xmlns="http://www.w3.org/2000/svg"
   xmlns:svg="http://www.w3.org/2000/svg"><defs
     id="defs158" /><sodipodi:namedview
     id="namedview156"
     pagecolor="#ffffff"
     bordercolor="#666666"
     borderopacity="1.0"
     inkscape:showpageshadow="2"
     inkscape:pageopacity="0.0"
     inkscape:pagecheckerboard="0"
     inkscape:deskcolor="#d1d1d1"
     showgrid="false"
     inkscape:zoom="2.56"
     inkscape:cx="110.54688"
     inkscape:cy="147.26562"
     inkscape:window-width="1848"
     inkscape:window-height="1163"
     inkscape:window-x="72"
     inkscape:window-y="0"
     inkscape:window-maximized="1"
     inkscape:current-layer="svg154" /><path
     d="m 195.30735,90.604341 c -10.3461,0 -19.13032,6.76883 -22.18945,16.105819 H 37.852478 c -0.06249,0 -0.123863,0.005 -0.186203,0.005 -12.791717,-0.10164 -23.169579,-10.531209 -23.169579,-23.346449 0,-12.23295 9.459439,-22.28109 21.444634,-23.25898 2.942024,17.9627 18.565437,31.7154 37.347514,31.7154 h 90.201646 v -25.32702 c 9.3378,-3.05864 16.10744,-11.843158 16.10744,-22.18993 0,-12.878059 -10.47773,-23.355785 -23.35579,-23.355785 -12.87805,0 -23.35578,10.477726 -23.35578,23.355785 0,10.346772 6.7695,19.13129 16.10744,22.18993 v 10.83032 H 73.288844 c -12.878062,0 -23.355784,-10.47773 -23.355784,-23.35579 0,-10.342423 6.764152,-19.123719 16.096164,-22.185738 3.39109,8.718636 11.8533,14.924828 21.75631,14.924828 12.878056,0 23.355786,-10.47773 23.355786,-23.355786 0,-12.878055 -10.47773,-23.3557848 -23.355786,-23.3557848 -10.66071,0 -19.65671,7.188427 -22.44539,16.9666098 C 50.995018,20.045063 39.649101,31.274528 36.391853,45.553123 16.195064,46.324348 1.0000002e-7,62.986371 1.0000002e-7,83.368551 1.0000002e-7,95.930741 6.1561011,107.07645 15.604431,113.96561 6.1561011,120.85475 1.0000002e-7,132.00061 1.0000002e-7,144.56265 1.0000002e-7,164.94499 16.195064,181.60701 36.391853,182.37808 c 3.257248,14.2786 14.603165,25.50806 28.948291,28.58652 2.78868,9.77817 11.78468,16.96661 22.44539,16.96661 12.878056,0 23.355786,-10.47757 23.355786,-23.3558 0,-12.87805 -10.47773,-23.35578 -23.355786,-23.35578 -9.90301,0 -18.36522,6.2062 -21.75631,14.92482 -9.332012,-3.06201 -16.096164,-11.84315 -16.096164,-22.18573 0,-12.87806 10.477722,-23.35579 23.355784,-23.35579 H 148.9938 v 10.83033 c -9.33794,3.05864 -16.10744,11.84315 -16.10744,22.18992 0,12.87805 10.47773,23.35579 23.35578,23.35579 12.87806,0 23.35579,-10.47774 23.35579,-23.35579 0,-10.34677 -6.76964,-19.13128 -16.10744,-22.18992 V 136.10625 H 73.288844 c -18.782077,0 -34.40549,13.75268 -37.347514,31.71537 -11.985195,-0.97787 -21.444634,-11.02603 -21.444634,-23.25897 0,-12.81525 10.377861,-23.24481 23.169579,-23.34628 0.06234,3.2e-4 0.123711,0.005 0.186203,0.005 v -0.0142 H 173.11694 c 3.058,9.33876 11.84315,16.10904 22.19041,16.10904 12.87806,0 23.35578,-10.47772 23.35578,-23.35577 0,-12.87807 -10.47772,-23.355789 -23.35578,-23.355789 z M 156.24214,35.448929 c 4.88409,0 8.8591,3.974189 8.8591,8.859092 0,4.884903 -3.97501,8.859085 -8.8591,8.859085 -4.8841,0 -8.85909,-3.974182 -8.85909,-8.859085 0,-4.884903 3.97499,-8.859092 8.85909,-8.859092 z M 87.785534,14.496696 c 4.8841,0 8.85909,3.974186 8.85909,8.859089 0,4.884903 -3.97499,8.859089 -8.85909,8.859089 -4.8841,0 -8.85909,-3.974182 -8.85909,-8.859089 0,-4.884907 3.97499,-8.859089 8.85909,-8.859089 z m 0,181.219624 c 4.8841,0 8.85909,3.97418 8.85909,8.85909 0,4.88507 -3.97499,8.8591 -8.85909,8.8591 -4.8841,0 -8.85909,-3.97403 -8.85909,-8.8591 0,-4.88491 3.97499,-8.85909 8.85909,-8.85909 z m 68.456606,-3.23405 c -4.8841,0 -8.85909,-3.97418 -8.85909,-8.85909 0,-4.8849 3.97499,-8.85908 8.85909,-8.85908 4.88409,0 8.8591,3.97418 8.8591,8.85908 0,4.88491 -3.97501,8.85909 -8.8591,8.85909 z m 39.06521,-69.66306 c -4.88408,0 -8.8591,-3.97418 -8.8591,-8.85908 0,-4.88491 3.97502,-8.8591 8.8591,-8.8591 4.8841,0 8.85909,3.97419 8.85909,8.8591 0,4.8849 -3.97499,8.85908 -8.85909,8.85908 z"
     id="path148" /></svg>
